<?xml version="1.0" encoding="UTF-8"?>
<!-- Generated by Pixelmator Pro 2.4.5 -->
<svg width="24" height="24" viewBox="0 0 24 24" xmlns="http://www.w3.org/2000/svg" xmlns:xlink="http://www.w3.org/1999/xlink">
    <path id="path1" fill="none" stroke="#403f3d" stroke-linecap="round" stroke-linejoin="round" d="M 23 3.010059 C 23 3.010059 20.9821 4.202169 19.860001 4.54006 C 19.2577 3.84757 18.4573 3.35675 17.566999 3.13398 C 16.676701 2.911221 15.7395 2.967251 14.8821 3.29451 C 14.0247 3.621769 13.2884 4.20446 12.773 4.96377 C 12.2575 5.723091 11.9877 6.622391 12 7.54006 L 12 8.54006 C 10.2426 8.58562 8.50127 8.19587 6.93101 7.4055 C 5.36074 6.615129 4.01032 5.44869 3 4.010059 C 3 4.010059 -1 13.0101 8 17.010099 C 5.94053 18.408001 3.48716 19.108999 1 19.010099 C 10 24.010099 21 19.010099 21 7.510059 C 20.9991 7.23151 20.9723 6.95365 20.92 6.680059 C 21.940599 5.67355 23 3.010059 23 3.010059 Z"/>
</svg>
